<mxfile host="app.diagrams.net" modified="2023-05-05T11:04:31.887Z" agent="Mozilla/5.0 (Macintosh; Intel Mac OS X 10_15_7) AppleWebKit/537.36 (KHTML, like Gecko) Chrome/112.0.0.0 Safari/537.36" etag="uq3Y7q6nD9N3yihP1b46" version="21.2.9" type="github">
  <diagram name="第 1 页" id="4zSmk2vjV4_KE-LIG9aG">
    <mxGraphModel dx="1989" dy="646" grid="1" gridSize="10" guides="1" tooltips="1" connect="1" arrows="1" fold="1" page="1" pageScale="1" pageWidth="827" pageHeight="1169" math="0" shadow="0">
      <root>
        <mxCell id="0" />
        <mxCell id="1" parent="0" />
        <mxCell id="xScLVoWsm3GZ9hFZWJ_B-36" value="" style="rounded=0;whiteSpace=wrap;html=1;strokeColor=none;fillColor=#CCE5FF;" vertex="1" parent="1">
          <mxGeometry x="-575" y="840" width="745" height="360" as="geometry" />
        </mxCell>
        <mxCell id="xScLVoWsm3GZ9hFZWJ_B-28" value="" style="rounded=0;whiteSpace=wrap;html=1;strokeColor=none;fillColor=#E6E6E6;" vertex="1" parent="1">
          <mxGeometry x="-75" y="930" width="155" height="150" as="geometry" />
        </mxCell>
        <mxCell id="xScLVoWsm3GZ9hFZWJ_B-27" value="" style="rounded=0;whiteSpace=wrap;html=1;strokeColor=none;fillColor=#E6E6E6;" vertex="1" parent="1">
          <mxGeometry x="-235" y="930" width="155" height="150" as="geometry" />
        </mxCell>
        <mxCell id="xScLVoWsm3GZ9hFZWJ_B-26" value="" style="rounded=0;whiteSpace=wrap;html=1;strokeColor=none;fillColor=#E6E6E6;" vertex="1" parent="1">
          <mxGeometry x="-395" y="930" width="155" height="150" as="geometry" />
        </mxCell>
        <mxCell id="xScLVoWsm3GZ9hFZWJ_B-23" value="" style="rounded=0;whiteSpace=wrap;html=1;strokeColor=none;fillColor=#E6E6E6;" vertex="1" parent="1">
          <mxGeometry x="-560" y="930" width="160" height="150" as="geometry" />
        </mxCell>
        <mxCell id="NjVWgUeqkpYDn7wtuAOI-38" value="" style="rounded=0;whiteSpace=wrap;html=1;fontSize=10;fillColor=#CCE5FF;strokeColor=none;" parent="1" vertex="1">
          <mxGeometry x="110" y="160" width="730" height="660" as="geometry" />
        </mxCell>
        <mxCell id="tErHS6ZoIvAzQrCqWhK0-1" value="" style="rounded=0;whiteSpace=wrap;html=1;fillColor=none;dashed=1;strokeWidth=4;strokeColor=#006600;" parent="1" vertex="1">
          <mxGeometry y="220" width="280" height="100" as="geometry" />
        </mxCell>
        <mxCell id="NjVWgUeqkpYDn7wtuAOI-1" value="公技 Android" style="rounded=0;whiteSpace=wrap;html=1;fontSize=14;fontStyle=1;strokeColor=none;fillColor=#6666FF;fontColor=#FFFFFF;" parent="1" vertex="1">
          <mxGeometry x="40" y="160" width="100" height="30" as="geometry" />
        </mxCell>
        <mxCell id="NjVWgUeqkpYDn7wtuAOI-2" value="公技 iOS" style="rounded=0;whiteSpace=wrap;html=1;fontSize=14;fontStyle=1;strokeColor=none;fillColor=#6666FF;fontColor=#FFFFFF;" parent="1" vertex="1">
          <mxGeometry x="170" y="160" width="100" height="30" as="geometry" />
        </mxCell>
        <mxCell id="NjVWgUeqkpYDn7wtuAOI-3" value="公技RN" style="rounded=0;whiteSpace=wrap;html=1;fontSize=14;fontStyle=1;strokeColor=none;fillColor=#6666FF;fontColor=#FFFFFF;" parent="1" vertex="1">
          <mxGeometry x="300" y="160" width="100" height="30" as="geometry" />
        </mxCell>
        <mxCell id="NjVWgUeqkpYDn7wtuAOI-4" value="业务双端" style="rounded=0;whiteSpace=wrap;html=1;fontSize=14;fontStyle=1;strokeColor=none;fillColor=#6666FF;fontColor=#FFFFFF;" parent="1" vertex="1">
          <mxGeometry x="450" y="160" width="100" height="30" as="geometry" />
        </mxCell>
        <mxCell id="NjVWgUeqkpYDn7wtuAOI-6" value="其他" style="rounded=0;whiteSpace=wrap;html=1;fontSize=14;fontStyle=1;strokeColor=none;fillColor=#6666FF;fontColor=#FFFFFF;" parent="1" vertex="1">
          <mxGeometry x="580" y="160" width="100" height="30" as="geometry" />
        </mxCell>
        <mxCell id="NjVWgUeqkpYDn7wtuAOI-7" value="冷启动" style="rounded=0;whiteSpace=wrap;html=1;fontSize=14;fillColor=#006600;strokeColor=none;fontColor=#FFFFFF;fontStyle=1" parent="1" vertex="1">
          <mxGeometry x="40" y="230" width="100" height="30" as="geometry" />
        </mxCell>
        <mxCell id="NjVWgUeqkpYDn7wtuAOI-8" value="冷启动" style="rounded=0;whiteSpace=wrap;html=1;fontSize=14;fillColor=#006600;strokeColor=none;fontColor=#FFFFFF;fontStyle=1" parent="1" vertex="1">
          <mxGeometry x="170" y="230" width="100" height="30" as="geometry" />
        </mxCell>
        <mxCell id="NjVWgUeqkpYDn7wtuAOI-9" value="PC - 冷启动" style="rounded=0;whiteSpace=wrap;html=1;fontSize=14;strokeColor=none;fillColor=#00CC00;fontColor=#FFFFFF;" parent="1" vertex="1">
          <mxGeometry x="580" y="230" width="100" height="30" as="geometry" />
        </mxCell>
        <mxCell id="NjVWgUeqkpYDn7wtuAOI-10" value="启动" style="rounded=0;whiteSpace=wrap;html=1;fontSize=14;strokeColor=none;fillColor=#00CC00;fontColor=#FFFFFF;fontStyle=1" parent="1" vertex="1">
          <mxGeometry x="300" y="230" width="100" height="30" as="geometry" />
        </mxCell>
        <mxCell id="NjVWgUeqkpYDn7wtuAOI-11" value="&lt;font color=&quot;#ffffff&quot;&gt;帧率、&lt;/font&gt;&lt;b style=&quot;&quot;&gt;&lt;font color=&quot;#ff0000&quot;&gt;卡顿&lt;/font&gt;&lt;/b&gt;" style="rounded=0;whiteSpace=wrap;html=1;fontSize=14;fillColor=#006600;strokeColor=none;" parent="1" vertex="1">
          <mxGeometry x="40" y="280" width="100" height="30" as="geometry" />
        </mxCell>
        <mxCell id="NjVWgUeqkpYDn7wtuAOI-12" value="&lt;font color=&quot;#ffffff&quot;&gt;帧率、&lt;/font&gt;&lt;b style=&quot;&quot;&gt;&lt;font color=&quot;#ff0000&quot;&gt;卡顿&lt;/font&gt;&lt;/b&gt;" style="rounded=0;whiteSpace=wrap;html=1;fontSize=14;fillColor=#006600;strokeColor=none;" parent="1" vertex="1">
          <mxGeometry x="170" y="280" width="100" height="30" as="geometry" />
        </mxCell>
        <mxCell id="NjVWgUeqkpYDn7wtuAOI-13" value="&lt;font color=&quot;#ffffff&quot;&gt;帧率&lt;/font&gt;" style="rounded=0;whiteSpace=wrap;html=1;fontSize=14;fillColor=#00CC00;strokeColor=none;fontStyle=1" parent="1" vertex="1">
          <mxGeometry x="300" y="280" width="100" height="30" as="geometry" />
        </mxCell>
        <mxCell id="NjVWgUeqkpYDn7wtuAOI-14" value="页面响应" style="rounded=0;whiteSpace=wrap;html=1;fontSize=14;fillColor=#00CC00;strokeColor=none;fontColor=#FFFFFF;fontStyle=1" parent="1" vertex="1">
          <mxGeometry x="40" y="330" width="100" height="30" as="geometry" />
        </mxCell>
        <mxCell id="NjVWgUeqkpYDn7wtuAOI-15" value="页面响应" style="rounded=0;whiteSpace=wrap;html=1;fontSize=14;fillColor=#00CC00;strokeColor=none;fontColor=#FFFFFF;fontStyle=1" parent="1" vertex="1">
          <mxGeometry x="170" y="330" width="100" height="30" as="geometry" />
        </mxCell>
        <mxCell id="NjVWgUeqkpYDn7wtuAOI-16" value="IO异常(分流中)" style="rounded=0;whiteSpace=wrap;html=1;fontSize=14;fillColor=#00CC00;strokeColor=none;fontColor=#FFFFFF;fontStyle=1" parent="1" vertex="1">
          <mxGeometry x="40" y="480" width="100" height="30" as="geometry" />
        </mxCell>
        <mxCell id="NjVWgUeqkpYDn7wtuAOI-17" value="&lt;strike&gt;&lt;i&gt;&lt;font color=&quot;#666666&quot;&gt;weakup&lt;br&gt;weak崩溃&lt;/font&gt;&lt;/i&gt;&lt;/strike&gt;" style="rounded=0;whiteSpace=wrap;html=1;fontSize=14;strokeColor=none;fillColor=#B3B3B3;fontStyle=0" parent="1" vertex="1">
          <mxGeometry x="160" y="475" width="120" height="40" as="geometry" />
        </mxCell>
        <mxCell id="NjVWgUeqkpYDn7wtuAOI-18" value="大图" style="rounded=0;whiteSpace=wrap;html=1;fontSize=14;fillColor=#00CC00;strokeColor=none;fontColor=#FFFFFF;fontStyle=1" parent="1" vertex="1">
          <mxGeometry x="40" y="530" width="100" height="30" as="geometry" />
        </mxCell>
        <mxCell id="NjVWgUeqkpYDn7wtuAOI-19" value="CPU、&lt;u style=&quot;&quot;&gt;&lt;font color=&quot;#a680b8&quot;&gt;CPU高位&lt;/font&gt;&lt;/u&gt;" style="rounded=0;whiteSpace=wrap;html=1;fontSize=14;fillColor=#00CC00;strokeColor=none;fontColor=#FFFFFF;fontStyle=1" parent="1" vertex="1">
          <mxGeometry x="160" y="530" width="120" height="30" as="geometry" />
        </mxCell>
        <mxCell id="NjVWgUeqkpYDn7wtuAOI-21" value="非正常关闭" style="rounded=0;whiteSpace=wrap;html=1;fontSize=14;fillColor=#00CC00;strokeColor=none;fontColor=#A680B8;fontStyle=5" parent="1" vertex="1">
          <mxGeometry x="170" y="580" width="100" height="30" as="geometry" />
        </mxCell>
        <mxCell id="NjVWgUeqkpYDn7wtuAOI-22" value="卡死ANR" style="rounded=0;whiteSpace=wrap;html=1;fontSize=14;fillColor=#00CC00;strokeColor=none;fontColor=#A680B8;fontStyle=5" parent="1" vertex="1">
          <mxGeometry x="170" y="630" width="100" height="30" as="geometry" />
        </mxCell>
        <mxCell id="NjVWgUeqkpYDn7wtuAOI-23" value="UI假死" style="rounded=0;whiteSpace=wrap;html=1;fontSize=14;fillColor=#00CC00;strokeColor=none;fontColor=#EA6B66;fontStyle=7" parent="1" vertex="1">
          <mxGeometry x="170" y="680" width="100" height="30" as="geometry" />
        </mxCell>
        <mxCell id="NjVWgUeqkpYDn7wtuAOI-24" value="播放、播放异常" style="rounded=0;whiteSpace=wrap;html=1;fontSize=14;fillColor=#00CC00;strokeColor=none;fontColor=#FFFFFF;fontStyle=1" parent="1" vertex="1">
          <mxGeometry x="440" y="230" width="120" height="30" as="geometry" />
        </mxCell>
        <mxCell id="NjVWgUeqkpYDn7wtuAOI-25" value="磁盘缓存管理&lt;br&gt;磁盘使用异常" style="rounded=0;whiteSpace=wrap;html=1;fontSize=14;fillColor=#00CC00;strokeColor=none;fontColor=#FFFFFF;fontStyle=1" parent="1" vertex="1">
          <mxGeometry x="440" y="280" width="120" height="50" as="geometry" />
        </mxCell>
        <mxCell id="NjVWgUeqkpYDn7wtuAOI-26" value="&lt;div&gt;RN 升级率&lt;/div&gt;&lt;div&gt;24小时、3d、&lt;br&gt;5d升级率&lt;/div&gt;" style="rounded=0;whiteSpace=wrap;html=1;fontSize=14;align=left;fillColor=#00CC00;strokeColor=none;fontColor=#EA6B66;fontStyle=1" parent="1" vertex="1">
          <mxGeometry x="300" y="430" width="100" height="70" as="geometry" />
        </mxCell>
        <mxCell id="NjVWgUeqkpYDn7wtuAOI-27" value="包大小" style="rounded=0;whiteSpace=wrap;html=1;fontSize=14;fillColor=#00CC00;strokeColor=none;fontColor=#EA6B66;fontStyle=1" parent="1" vertex="1">
          <mxGeometry x="40" y="430" width="100" height="30" as="geometry" />
        </mxCell>
        <mxCell id="NjVWgUeqkpYDn7wtuAOI-28" value="包大小" style="rounded=0;whiteSpace=wrap;html=1;fontSize=14;fillColor=#00CC00;strokeColor=none;fontColor=#EA6B66;fontStyle=1" parent="1" vertex="1">
          <mxGeometry x="170" y="430" width="100" height="30" as="geometry" />
        </mxCell>
        <mxCell id="NjVWgUeqkpYDn7wtuAOI-29" value="OOM崩溃" style="rounded=0;whiteSpace=wrap;html=1;fontSize=14;fillColor=#00CC00;strokeColor=none;fontColor=#A680B8;fontStyle=5" parent="1" vertex="1">
          <mxGeometry x="170" y="730" width="100" height="30" as="geometry" />
        </mxCell>
        <mxCell id="NjVWgUeqkpYDn7wtuAOI-30" value="OOM文件解析工具" style="rounded=0;whiteSpace=wrap;html=1;fontSize=10;strokeColor=none;fillColor=#FFE6CC;" parent="1" vertex="1">
          <mxGeometry x="160" y="770" width="120" height="30" as="geometry" />
        </mxCell>
        <mxCell id="NjVWgUeqkpYDn7wtuAOI-32" value="网络 - 大流量" style="rounded=0;whiteSpace=wrap;html=1;fontSize=14;strokeColor=none;fillColor=#FFE6CC;" parent="1" vertex="1">
          <mxGeometry x="580" y="330" width="100" height="30" as="geometry" />
        </mxCell>
        <mxCell id="NjVWgUeqkpYDn7wtuAOI-34" value="线下APM数据录入" style="rounded=0;whiteSpace=wrap;html=1;fontSize=14;fillColor=#00CC00;strokeColor=none;fontColor=#EA6B66;fontStyle=1" parent="1" vertex="1">
          <mxGeometry x="574" y="380" width="120" height="30" as="geometry" />
        </mxCell>
        <mxCell id="NjVWgUeqkpYDn7wtuAOI-35" value="&lt;div&gt;iOS -&amp;nbsp;&lt;span style=&quot;background-color: initial;&quot;&gt;RN定时器&lt;/span&gt;&lt;/div&gt;" style="rounded=0;whiteSpace=wrap;html=1;fontSize=14;align=center;fillColor=#00CC00;strokeColor=none;fontColor=#EA6B66;fontStyle=1" parent="1" vertex="1">
          <mxGeometry x="300" y="330" width="110" height="30" as="geometry" />
        </mxCell>
        <mxCell id="NjVWgUeqkpYDn7wtuAOI-36" value="&lt;div&gt;LCP&lt;/div&gt;" style="rounded=0;whiteSpace=wrap;html=1;fontSize=14;align=center;fillColor=#00CC00;strokeColor=none;fontColor=#EA6B66;fontStyle=1" parent="1" vertex="1">
          <mxGeometry x="300" y="380" width="100" height="30" as="geometry" />
        </mxCell>
        <mxCell id="NjVWgUeqkpYDn7wtuAOI-41" value="" style="endArrow=none;dashed=1;html=1;strokeWidth=2;rounded=0;fontSize=10;fontColor=#EA6B66;strokeColor=#808080;" parent="1" edge="1">
          <mxGeometry width="50" height="50" relative="1" as="geometry">
            <mxPoint x="150" y="800" as="sourcePoint" />
            <mxPoint x="150" y="210" as="targetPoint" />
          </mxGeometry>
        </mxCell>
        <mxCell id="NjVWgUeqkpYDn7wtuAOI-42" value="" style="endArrow=none;html=1;rounded=0;fontSize=10;fontColor=#EA6B66;" parent="1" edge="1">
          <mxGeometry width="50" height="50" relative="1" as="geometry">
            <mxPoint x="40" y="210" as="sourcePoint" />
            <mxPoint x="690" y="210" as="targetPoint" />
          </mxGeometry>
        </mxCell>
        <mxCell id="NjVWgUeqkpYDn7wtuAOI-43" value="" style="endArrow=none;dashed=1;html=1;strokeWidth=2;rounded=0;fontSize=10;fontColor=#EA6B66;strokeColor=#808080;" parent="1" edge="1">
          <mxGeometry width="50" height="50" relative="1" as="geometry">
            <mxPoint x="286" y="800" as="sourcePoint" />
            <mxPoint x="286" y="210" as="targetPoint" />
          </mxGeometry>
        </mxCell>
        <mxCell id="NjVWgUeqkpYDn7wtuAOI-44" value="" style="endArrow=none;dashed=1;html=1;strokeWidth=2;rounded=0;fontSize=10;fontColor=#EA6B66;strokeColor=#808080;" parent="1" edge="1">
          <mxGeometry width="50" height="50" relative="1" as="geometry">
            <mxPoint x="420" y="800" as="sourcePoint" />
            <mxPoint x="420" y="210" as="targetPoint" />
          </mxGeometry>
        </mxCell>
        <mxCell id="NjVWgUeqkpYDn7wtuAOI-45" value="" style="endArrow=none;dashed=1;html=1;strokeWidth=2;rounded=0;fontSize=10;fontColor=#EA6B66;strokeColor=#808080;" parent="1" edge="1">
          <mxGeometry width="50" height="50" relative="1" as="geometry">
            <mxPoint x="570" y="800" as="sourcePoint" />
            <mxPoint x="570" y="210" as="targetPoint" />
          </mxGeometry>
        </mxCell>
        <mxCell id="NjVWgUeqkpYDn7wtuAOI-57" value="内存大小&lt;br&gt;&lt;u style=&quot;&quot;&gt;&lt;font color=&quot;#a680b8&quot;&gt;内存过程异常&lt;/font&gt;&lt;/u&gt;" style="rounded=0;whiteSpace=wrap;html=1;fontSize=14;fillColor=#00CC00;strokeColor=none;fontColor=#FFFFFF;fontStyle=1" parent="1" vertex="1">
          <mxGeometry x="40" y="375" width="100" height="40" as="geometry" />
        </mxCell>
        <mxCell id="NjVWgUeqkpYDn7wtuAOI-58" value="内存大小&lt;br&gt;&lt;u&gt;&lt;font color=&quot;#a680b8&quot;&gt;内存过程异常&lt;/font&gt;&lt;/u&gt;" style="rounded=0;whiteSpace=wrap;html=1;fontSize=14;fillColor=#00CC00;strokeColor=none;fontColor=#FFFFFF;fontStyle=1" parent="1" vertex="1">
          <mxGeometry x="170" y="375" width="100" height="40" as="geometry" />
        </mxCell>
        <mxCell id="NjVWgUeqkpYDn7wtuAOI-64" value="&lt;b&gt;&lt;font color=&quot;#000000&quot;&gt;==&amp;gt;&amp;gt; 未完成，23年规划&lt;/font&gt;&lt;/b&gt;" style="text;html=1;strokeColor=none;fillColor=none;align=center;verticalAlign=middle;whiteSpace=wrap;rounded=0;fontSize=10;fontColor=#E6B1FF;" parent="1" vertex="1">
          <mxGeometry x="540" y="620" width="150" height="30" as="geometry" />
        </mxCell>
        <mxCell id="NjVWgUeqkpYDn7wtuAOI-70" value="网络 - 大流量" style="rounded=0;whiteSpace=wrap;html=1;fontSize=14;strokeColor=none;fillColor=#FFE6CC;" parent="1" vertex="1">
          <mxGeometry x="440" y="620" width="100" height="30" as="geometry" />
        </mxCell>
        <mxCell id="NjVWgUeqkpYDn7wtuAOI-71" value="卡死ANR" style="rounded=0;whiteSpace=wrap;html=1;fontSize=14;fillColor=#00CC00;strokeColor=none;fontColor=#A680B8;fontStyle=5" parent="1" vertex="1">
          <mxGeometry x="440" y="660" width="100" height="30" as="geometry" />
        </mxCell>
        <mxCell id="NjVWgUeqkpYDn7wtuAOI-72" value="&lt;b&gt;&lt;font color=&quot;#000000&quot;&gt;==&amp;gt;&amp;gt; 排查型指标&lt;/font&gt;&lt;/b&gt;" style="text;html=1;strokeColor=none;fillColor=none;align=center;verticalAlign=middle;whiteSpace=wrap;rounded=0;fontSize=10;fontColor=#E6B1FF;" parent="1" vertex="1">
          <mxGeometry x="540" y="660" width="110" height="30" as="geometry" />
        </mxCell>
        <mxCell id="NjVWgUeqkpYDn7wtuAOI-73" value="包大小" style="rounded=0;whiteSpace=wrap;html=1;fontSize=14;fillColor=#00CC00;strokeColor=none;fontColor=#EA6B66;fontStyle=1" parent="1" vertex="1">
          <mxGeometry x="440" y="700" width="100" height="30" as="geometry" />
        </mxCell>
        <mxCell id="NjVWgUeqkpYDn7wtuAOI-74" value="&lt;b&gt;&lt;font color=&quot;#000000&quot;&gt;==&amp;gt;&amp;gt; 立项后插入&lt;/font&gt;&lt;/b&gt;" style="text;html=1;strokeColor=none;fillColor=none;align=center;verticalAlign=middle;whiteSpace=wrap;rounded=0;fontSize=10;fontColor=#E6B1FF;" parent="1" vertex="1">
          <mxGeometry x="540" y="700" width="110" height="30" as="geometry" />
        </mxCell>
        <mxCell id="NjVWgUeqkpYDn7wtuAOI-75" value="PC - 包大小" style="rounded=0;whiteSpace=wrap;html=1;fontSize=14;strokeColor=none;fillColor=#00CC00;fontColor=#FFFFFF;" parent="1" vertex="1">
          <mxGeometry x="580" y="280" width="100" height="30" as="geometry" />
        </mxCell>
        <mxCell id="NjVWgUeqkpYDn7wtuAOI-76" value="LCP 8060&lt;br&gt;跨三端方案" style="rounded=0;whiteSpace=wrap;html=1;fontSize=14;fillColor=#FFE6CC;strokeColor=none;" parent="1" vertex="1">
          <mxGeometry x="295" y="520" width="120" height="50" as="geometry" />
        </mxCell>
        <mxCell id="tErHS6ZoIvAzQrCqWhK0-2" value="一&lt;br style=&quot;font-size: 20px;&quot;&gt;期" style="text;html=1;strokeColor=none;fillColor=none;align=center;verticalAlign=middle;whiteSpace=wrap;rounded=0;fontStyle=1;fontColor=#006600;fontSize=20;" parent="1" vertex="1">
          <mxGeometry x="2" y="233" width="30" height="30" as="geometry" />
        </mxCell>
        <mxCell id="xScLVoWsm3GZ9hFZWJ_B-2" value="Engine" style="rounded=0;whiteSpace=wrap;html=1;fillColor=#99CCFF;strokeColor=none;" vertex="1" parent="1">
          <mxGeometry x="-560" y="1090" width="640" height="40" as="geometry" />
        </mxCell>
        <mxCell id="xScLVoWsm3GZ9hFZWJ_B-7" style="edgeStyle=orthogonalEdgeStyle;rounded=0;orthogonalLoop=1;jettySize=auto;html=1;" edge="1" parent="1" source="xScLVoWsm3GZ9hFZWJ_B-3">
          <mxGeometry relative="1" as="geometry">
            <mxPoint x="-480" y="1090" as="targetPoint" />
          </mxGeometry>
        </mxCell>
        <mxCell id="xScLVoWsm3GZ9hFZWJ_B-3" value="Plugin - 0" style="rounded=0;whiteSpace=wrap;html=1;fillColor=#9999FF;strokeColor=none;" vertex="1" parent="1">
          <mxGeometry x="-540" y="1020" width="120" height="40" as="geometry" />
        </mxCell>
        <mxCell id="xScLVoWsm3GZ9hFZWJ_B-9" style="edgeStyle=orthogonalEdgeStyle;rounded=0;orthogonalLoop=1;jettySize=auto;html=1;entryX=0.392;entryY=0.029;entryDx=0;entryDy=0;entryPerimeter=0;" edge="1" parent="1" source="xScLVoWsm3GZ9hFZWJ_B-4" target="xScLVoWsm3GZ9hFZWJ_B-2">
          <mxGeometry relative="1" as="geometry" />
        </mxCell>
        <mxCell id="xScLVoWsm3GZ9hFZWJ_B-4" value="Plugin - 2" style="rounded=0;whiteSpace=wrap;html=1;fillColor=#9999FF;strokeColor=none;" vertex="1" parent="1">
          <mxGeometry x="-370" y="1020" width="120" height="40" as="geometry" />
        </mxCell>
        <mxCell id="xScLVoWsm3GZ9hFZWJ_B-10" style="edgeStyle=orthogonalEdgeStyle;rounded=0;orthogonalLoop=1;jettySize=auto;html=1;" edge="1" parent="1" source="xScLVoWsm3GZ9hFZWJ_B-5">
          <mxGeometry relative="1" as="geometry">
            <mxPoint x="-150" y="1090" as="targetPoint" />
          </mxGeometry>
        </mxCell>
        <mxCell id="xScLVoWsm3GZ9hFZWJ_B-5" value="Plugin - 3" style="rounded=0;whiteSpace=wrap;html=1;fillColor=#9999FF;strokeColor=none;" vertex="1" parent="1">
          <mxGeometry x="-210" y="1020" width="120" height="40" as="geometry" />
        </mxCell>
        <mxCell id="xScLVoWsm3GZ9hFZWJ_B-11" style="edgeStyle=orthogonalEdgeStyle;rounded=0;orthogonalLoop=1;jettySize=auto;html=1;entryX=0.89;entryY=0.043;entryDx=0;entryDy=0;entryPerimeter=0;" edge="1" parent="1" source="xScLVoWsm3GZ9hFZWJ_B-6" target="xScLVoWsm3GZ9hFZWJ_B-2">
          <mxGeometry relative="1" as="geometry" />
        </mxCell>
        <mxCell id="xScLVoWsm3GZ9hFZWJ_B-6" value="Plugin - N" style="rounded=0;whiteSpace=wrap;html=1;fillColor=#9999FF;strokeColor=none;" vertex="1" parent="1">
          <mxGeometry x="-50" y="1020" width="120" height="40" as="geometry" />
        </mxCell>
        <mxCell id="xScLVoWsm3GZ9hFZWJ_B-25" style="rounded=0;orthogonalLoop=1;jettySize=auto;html=1;entryX=0.5;entryY=0;entryDx=0;entryDy=0;dashed=1;" edge="1" parent="1" source="xScLVoWsm3GZ9hFZWJ_B-12" target="xScLVoWsm3GZ9hFZWJ_B-3">
          <mxGeometry relative="1" as="geometry" />
        </mxCell>
        <mxCell id="xScLVoWsm3GZ9hFZWJ_B-12" value="指标实现" style="rounded=0;whiteSpace=wrap;html=1;fillColor=#CCE5FF;strokeColor=none;" vertex="1" parent="1">
          <mxGeometry x="-476" y="950" width="70" height="30" as="geometry" />
        </mxCell>
        <mxCell id="xScLVoWsm3GZ9hFZWJ_B-24" style="rounded=0;orthogonalLoop=1;jettySize=auto;html=1;dashed=1;" edge="1" parent="1" source="xScLVoWsm3GZ9hFZWJ_B-16" target="xScLVoWsm3GZ9hFZWJ_B-3">
          <mxGeometry relative="1" as="geometry" />
        </mxCell>
        <mxCell id="xScLVoWsm3GZ9hFZWJ_B-16" value="config" style="rounded=0;whiteSpace=wrap;html=1;fillColor=#CCE5FF;strokeColor=none;" vertex="1" parent="1">
          <mxGeometry x="-555" y="950" width="70" height="30" as="geometry" />
        </mxCell>
        <mxCell id="xScLVoWsm3GZ9hFZWJ_B-30" style="rounded=0;orthogonalLoop=1;jettySize=auto;html=1;dashed=1;" edge="1" parent="1" source="xScLVoWsm3GZ9hFZWJ_B-17" target="xScLVoWsm3GZ9hFZWJ_B-4">
          <mxGeometry relative="1" as="geometry" />
        </mxCell>
        <mxCell id="xScLVoWsm3GZ9hFZWJ_B-17" value="指标实现" style="rounded=0;whiteSpace=wrap;html=1;fillColor=#CCE5FF;strokeColor=none;" vertex="1" parent="1">
          <mxGeometry x="-315" y="950" width="70" height="30" as="geometry" />
        </mxCell>
        <mxCell id="xScLVoWsm3GZ9hFZWJ_B-29" style="rounded=0;orthogonalLoop=1;jettySize=auto;html=1;dashed=1;" edge="1" parent="1" source="xScLVoWsm3GZ9hFZWJ_B-18" target="xScLVoWsm3GZ9hFZWJ_B-4">
          <mxGeometry relative="1" as="geometry" />
        </mxCell>
        <mxCell id="xScLVoWsm3GZ9hFZWJ_B-18" value="config" style="rounded=0;whiteSpace=wrap;html=1;fillColor=#CCE5FF;strokeColor=none;" vertex="1" parent="1">
          <mxGeometry x="-391" y="950" width="70" height="30" as="geometry" />
        </mxCell>
        <mxCell id="xScLVoWsm3GZ9hFZWJ_B-32" style="rounded=0;orthogonalLoop=1;jettySize=auto;html=1;dashed=1;" edge="1" parent="1" source="xScLVoWsm3GZ9hFZWJ_B-19" target="xScLVoWsm3GZ9hFZWJ_B-5">
          <mxGeometry relative="1" as="geometry" />
        </mxCell>
        <mxCell id="xScLVoWsm3GZ9hFZWJ_B-19" value="指标实现" style="rounded=0;whiteSpace=wrap;html=1;fillColor=#CCE5FF;strokeColor=none;" vertex="1" parent="1">
          <mxGeometry x="-150" y="950" width="70" height="30" as="geometry" />
        </mxCell>
        <mxCell id="xScLVoWsm3GZ9hFZWJ_B-31" style="rounded=0;orthogonalLoop=1;jettySize=auto;html=1;dashed=1;" edge="1" parent="1" source="xScLVoWsm3GZ9hFZWJ_B-20" target="xScLVoWsm3GZ9hFZWJ_B-5">
          <mxGeometry relative="1" as="geometry" />
        </mxCell>
        <mxCell id="xScLVoWsm3GZ9hFZWJ_B-20" value="config" style="rounded=0;whiteSpace=wrap;html=1;fillColor=#CCE5FF;strokeColor=none;" vertex="1" parent="1">
          <mxGeometry x="-230" y="950" width="70" height="30" as="geometry" />
        </mxCell>
        <mxCell id="xScLVoWsm3GZ9hFZWJ_B-34" style="rounded=0;orthogonalLoop=1;jettySize=auto;html=1;dashed=1;" edge="1" parent="1" source="xScLVoWsm3GZ9hFZWJ_B-21" target="xScLVoWsm3GZ9hFZWJ_B-6">
          <mxGeometry relative="1" as="geometry" />
        </mxCell>
        <mxCell id="xScLVoWsm3GZ9hFZWJ_B-21" value="指标实现" style="rounded=0;whiteSpace=wrap;html=1;fillColor=#CCE5FF;strokeColor=none;" vertex="1" parent="1">
          <mxGeometry x="10" y="950" width="70" height="30" as="geometry" />
        </mxCell>
        <mxCell id="xScLVoWsm3GZ9hFZWJ_B-33" style="rounded=0;orthogonalLoop=1;jettySize=auto;html=1;dashed=1;" edge="1" parent="1" source="xScLVoWsm3GZ9hFZWJ_B-22" target="xScLVoWsm3GZ9hFZWJ_B-6">
          <mxGeometry relative="1" as="geometry" />
        </mxCell>
        <mxCell id="xScLVoWsm3GZ9hFZWJ_B-22" value="config" style="rounded=0;whiteSpace=wrap;html=1;fillColor=#CCE5FF;strokeColor=none;" vertex="1" parent="1">
          <mxGeometry x="-70" y="950" width="70" height="30" as="geometry" />
        </mxCell>
        <mxCell id="xScLVoWsm3GZ9hFZWJ_B-40" style="edgeStyle=orthogonalEdgeStyle;rounded=0;orthogonalLoop=1;jettySize=auto;html=1;" edge="1" parent="1" source="xScLVoWsm3GZ9hFZWJ_B-35" target="xScLVoWsm3GZ9hFZWJ_B-2">
          <mxGeometry relative="1" as="geometry" />
        </mxCell>
        <mxCell id="xScLVoWsm3GZ9hFZWJ_B-35" value="Launch (使用配置中心 &amp;amp; AB)" style="rounded=0;whiteSpace=wrap;html=1;fillColor=#67AB9F;strokeColor=none;" vertex="1" parent="1">
          <mxGeometry x="-560" y="1150" width="640" height="40" as="geometry" />
        </mxCell>
        <mxCell id="xScLVoWsm3GZ9hFZWJ_B-37" value="OS 底层技术" style="rounded=0;whiteSpace=wrap;html=1;fillColor=#FFE6CC;strokeColor=none;" vertex="1" parent="1">
          <mxGeometry x="-560" y="880" width="640" height="40" as="geometry" />
        </mxCell>
        <mxCell id="xScLVoWsm3GZ9hFZWJ_B-43" style="rounded=0;orthogonalLoop=1;jettySize=auto;html=1;entryX=0;entryY=0.75;entryDx=0;entryDy=0;" edge="1" parent="1" source="xScLVoWsm3GZ9hFZWJ_B-41" target="xScLVoWsm3GZ9hFZWJ_B-42">
          <mxGeometry relative="1" as="geometry" />
        </mxCell>
        <mxCell id="xScLVoWsm3GZ9hFZWJ_B-41" value="指标数据上报" style="rounded=0;whiteSpace=wrap;html=1;fillColor=#3399FF;strokeColor=none;fontColor=#FFFFFF;fontStyle=5" vertex="1" parent="1">
          <mxGeometry x="-50" y="1100" width="130" height="30" as="geometry" />
        </mxCell>
        <mxCell id="xScLVoWsm3GZ9hFZWJ_B-42" value="A&#xa;P&#xa;M&#xa;平&#xa;台" style="rounded=1;labelPosition=center;verticalLabelPosition=middle;align=center;verticalAlign=middle;whiteSpace=wrap;strokeColor=none;fillColor=#E5CCFF;" vertex="1" parent="1">
          <mxGeometry x="110" y="880" width="40" height="310" as="geometry" />
        </mxCell>
        <mxCell id="xScLVoWsm3GZ9hFZWJ_B-44" value="SDK架构设计：" style="text;html=1;strokeColor=none;fillColor=none;align=left;verticalAlign=middle;whiteSpace=wrap;rounded=0;fontStyle=1" vertex="1" parent="1">
          <mxGeometry x="-567" y="841" width="135" height="30" as="geometry" />
        </mxCell>
      </root>
    </mxGraphModel>
  </diagram>
</mxfile>
